<svg xmlns="http://www.w3.org/2000/svg" xmlns:xlink="http://www.w3.org/1999/xlink" xmlns:lucid="lucid" width="1760" height="1360"><g transform="translate(0 0)" lucid:page-tab-id="HWEp-vi-RSFO"><path d="M0 0h1760v1360H0z" fill="#fff"/><path d="M200 80h115v20l-10 10H200z" fill="#fff"/><path d="M315 80v20l-10 10H200" stroke="#333" stroke-width="2" fill="none"/><path d="M200 80h1420v1100H200z" stroke="#333" stroke-width="2" fill="none"/><use xlink:href="#a" transform="matrix(1,0,0,1,208,80) translate(0 18.6)"/><use xlink:href="#b" transform="matrix(1,0,0,1,208,80) translate(34 18.6)"/><path d="M119.75 339.75c0 10.9-8.84 19.75-19.75 19.75-10.9 0-19.75-8.84-19.75-19.75 0-10.9 8.84-19.75 19.75-19.75 10.9 0 19.75 8.84 19.75 19.75z" stroke="#333" stroke-width="2" fill="#fff"/><path d="M100 359.5v55.3l40 63.2m-40-63.2L60 478m0-98.75h80" stroke="#333" stroke-width="2" fill="none"/><path d="M60 320h80v180H60z" fill="none"/><use xlink:href="#c" transform="matrix(1,0,0,1,-20,478) translate(95.55 14.6)"/><path d="M899 420c0 33.14-49.02 60-109.5 60S680 453.14 680 420s49.02-60 109.5-60S899 386.86 899 420z" stroke="#333" stroke-width="2" fill="#dedeff"/><use xlink:href="#d" transform="matrix(1,0,0,1,680,360) translate(63.47999999999999 63.15)"/><path d="M119.75 879.75c0 10.9-8.84 19.75-19.75 19.75-10.9 0-19.75-8.84-19.75-19.75 0-10.9 8.84-19.75 19.75-19.75 10.9 0 19.75 8.84 19.75 19.75z" stroke="#333" stroke-width="2" fill="#fff"/><path d="M100 899.5v55.3l40 63.2m-40-63.2L60 1018m0-98.75h80" stroke="#333" stroke-width="2" fill="none"/><path d="M60 860h80v180H60z" fill="none"/><use xlink:href="#e" transform="matrix(1,0,0,1,-20,1018) translate(102.525 14.6)"/><path d="M1000 950c0 44.18-53.73 80-120 80-66.27 0-120-35.82-120-80s53.73-80 120-80c66.27 0 120 35.82 120 80z" stroke="#333" stroke-width="2" fill="#dedeff"/><use xlink:href="#f" transform="matrix(1,0,0,1,760,870) translate(51.62999999999999 84.4)"/><use xlink:href="#g" transform="matrix(1,0,0,1,760,870) translate(137.43 84.4)"/><use xlink:href="#h" transform="matrix(1,0,0,1,760,870) translate(157.43 84.4)"/><path d="M102 950h656M102.03 950H98" stroke="#333" stroke-width="2" fill="none"/><path d="M759 950v1h-1.03v-2h1.05z" stroke="#333" stroke-width=".05" fill="#333"/><path d="M1340 240c0 33.14-45 60-100.5 60S1139 273.14 1139 240s45-60 100.5-60 100.5 26.86 100.5 60z" stroke="#333" stroke-width="2" fill="#f4d9ff"/><use xlink:href="#i" transform="matrix(1,0,0,1,1139,180) translate(37.20499999999999 63.15)"/><use xlink:href="#j" transform="matrix(1,0,0,1,1139,180) translate(102.055 63.15)"/><path d="M1340 460c0 33.14-45 60-100.5 60S1139 493.14 1139 460s45-60 100.5-60 100.5 26.86 100.5 60z" stroke="#333" stroke-width="2" fill="#f4d9ff"/><use xlink:href="#k" transform="matrix(1,0,0,1,1139,400) translate(31.70499999999999 63.15)"/><use xlink:href="#j" transform="matrix(1,0,0,1,1139,400) translate(107.555 63.15)"/><path d="M1340 660c0 33.14-45 60-100.5 60S1139 693.14 1139 660s45-60 100.5-60 100.5 26.86 100.5 60z" stroke="#333" stroke-width="2" fill="#f4d9ff"/><use xlink:href="#l" transform="matrix(1,0,0,1,1139,600) translate(23.20499999999999 63.15)"/><use xlink:href="#j" transform="matrix(1,0,0,1,1139,600) translate(116.055 63.15)"/><path d="M678.5 420H395a5 5 0 0 1-5-5 5 5 0 0 0-5-5H101.5" stroke="#333" fill="none"/><path d="M679 420v.5h-.5v-1h.5z" stroke="#333" stroke-width=".05" fill="#333"/><path d="M101.5 410H98" stroke="#333" fill="none"/><path d="M790.5 358h-2v-8.83h2zm0-17.67h-2v-17.66h2zm0-26.5h-2v-3.24h2zm0-26.5h-2v-17.66h2zM811.14 241h-9.6l-1.76.14-1.68.4-1.6.66-1.46.9-1.32 1.12-1.12 1.32-.9 1.47-.66 1.6-.4 1.68-.14 1.76v8.8h-2v-8.88l.16-2 .47-1.98.78-1.88 1.08-1.74 1.32-1.56 1.56-1.32 1.74-1.07 1.88-.77 2-.47 1.98-.16h9.68zm308.36 0h-9.64v-2h9.64zm-19.28 0h-19.27v-2h19.27zm-28.9 0h-19.28v-2h19.28zm-28.9 0h-19.3v-2h19.3zm-28.92 0h-19.27v-2h19.27zm-28.9 0H965.3v-2h19.27zm-28.92 0H936.4v-2h19.28zm-28.9 0H907.5v-2h19.27zm-28.92 0H878.6v-2h19.26zm-28.9 0h-19.28v-2h19.27zm-28.92 0h-19.27v-2h19.27z" stroke="#333" stroke-width=".05" fill="#333"/><path d="M1134.76 240l-14.26 4.63v-9.26z" fill="#333"/><path d="M1138 240l-18.5 6v-12zm-16.5 3.26l10.03-3.26-10.03-3.26z" stroke="#333" stroke-width=".05" fill="#333"/><path d="M790.5 359.02l-1-.02h-1v-1.03h2z" fill="#333"/><path d="M790.52 359.05l-1-.03h-1.04v-1.07h2.04zm-2-1.05v.98h1l.96.02v-1z" stroke="#333" stroke-width=".05" fill="#333"/><use xlink:href="#m" transform="matrix(1,0,0,1,741.5,288.9888846637603) translate(0.005000000000002558 14.4)"/><path d="M1119.5 461h-9.84v-2h9.84zm-19.67 0h-19.66v-2h19.66zm-29.5 0h-19.66v-2h19.66zM1020 431.96v16l.14 1.76.4 1.68.66 1.6.9 1.46 1.12 1.32 1.32 1.12 1.47.9 1.6.66 1.68.4 1.76.14h9.8v2h-9.88l-2-.16-1.98-.47-1.88-.78-1.74-1.08-1.56-1.32-1.32-1.56-1.07-1.74-.77-1.88-.47-2-.16-1.98v-16l-.1-1.24h2zM958.46 421h-13.3v-2h13.3zm-22.13 0h-17.66v-2h17.66zm-26.5 0H901v-2h8.83z" stroke="#333" stroke-width=".05" fill="#333"/><path d="M1134.76 460l-14.26 4.63v-9.26z" fill="#333"/><path d="M1138 460l-18.5 6v-12zm-16.5 3.26l10.03-3.26-10.03-3.26z" stroke="#333" stroke-width=".05" fill="#333"/><path d="M901.03 421h-1.05l.02-1v-.64l-.02-.36h1.05z" fill="#333"/><path d="M901.05 421.02h-1.1l.02-1v-.66l-.02-.38h1.1zm-1.04-2l.02.34v.65l-.02.98h1v-1.96z" stroke="#333" stroke-width=".05" fill="#333"/><use xlink:href="#m" transform="matrix(1,0,0,1,958.4605818872349,409.2) translate(0.005000000000002558 14.4)"/><path d="M1119.5 661h-9.64v-2h9.64zm-19.28 0h-19.27v-2h19.27zm-28.9 0h-19.28v-2h19.28zm-28.9 0h-19.3v-2h19.3zm-130.38 0h-4.54v-2h4.54zm-14.18 0H878.6v-2h19.26zm-28.9 0h-19.28v-2h19.27zm-28.92 0h-19.27v-2h19.27zm-49.54-13.04l.14 1.76.4 1.68.66 1.6.9 1.46 1.12 1.32 1.32 1.12 1.47.9 1.6.66 1.68.4 1.76.14h9.6v2h-9.68l-2-.16-1.98-.47-1.88-.78-1.74-1.08-1.56-1.32-1.32-1.56-1.07-1.74-.77-1.88-.47-2-.16-1.98v-9.26h2zm223 13.04h-5.46v-2h5.46zm-223-31.44h-2V611.1h2zm0-27.67h-2v-18.46h2zm0-27.68h-2v-18.44h2zm0-27.66h-2V528.1h2zm0-27.67h-2v-18.46h2zm0-27.68h-2V482h2z" stroke="#333" stroke-width=".05" fill="#333"/><path d="M1134.76 660l-14.26 4.63v-9.26z" fill="#333"/><path d="M1138 660l-18.5 6v-12zm-16.5 3.26l10.03-3.26-10.03-3.26z" stroke="#333" stroke-width=".05" fill="#333"/><path d="M789.5 481h1v1.03h-2v-1.05z" fill="#333"/><path d="M789.5 480.98h1.02v1.07h-2.04v-1.1zm-.98 1.02h1.96v-.98h-1l-.96-.02z" stroke="#333" stroke-width=".05" fill="#333"/><g><use xlink:href="#m" transform="matrix(1,0,0,1,912.0441897290866,649.2) translate(0.005000000000002558 14.4)"/></g><path d="M799 180h240v60H799z" stroke="#000" stroke-opacity="0" stroke-width="2" fill="#fff" fill-opacity="0"/><path d="M100 522.5v272.64M100 522.56V520" stroke="#3a414a" stroke-width="5" fill="none"/><path d="M100 811.9l-4.64-14.26h9.28z" stroke="#3a414a" stroke-width="5" fill="#fff"/><defs><path d="M84 4C-5 8 30-112 23-190h32v120c0 31 7 50 39 49 72-2 45-101 50-169h31l1 190h-30c-1-10 1-25-2-33-11 22-28 36-60 37" id="n"/><path d="M135-143c-3-34-86-38-87 0 15 53 115 12 119 90S17 21 10-45l28-5c4 36 97 45 98 0-10-56-113-15-118-90-4-57 82-63 122-42 12 7 21 19 24 35" id="o"/><path d="M100-194c63 0 86 42 84 106H49c0 40 14 67 53 68 26 1 43-12 49-29l28 8c-11 28-37 45-77 45C44 4 14-33 15-96c1-61 26-98 85-98zm52 81c6-60-76-77-97-28-3 7-6 17-6 28h103" id="p"/><g id="a"><use transform="matrix(0.05,0,0,0.05,0,0)" xlink:href="#n"/><use transform="matrix(0.05,0,0,0.05,10,0)" xlink:href="#o"/><use transform="matrix(0.05,0,0,0.05,19,0)" xlink:href="#p"/></g><path d="M96-169c-40 0-48 33-48 73s9 75 48 75c24 0 41-14 43-38l32 2c-6 37-31 61-74 61-59 0-76-41-82-99-10-93 101-131 147-64 4 7 5 14 7 22l-32 3c-4-21-16-35-41-35" id="q"/><path d="M141-36C126-15 110 5 73 4 37 3 15-17 15-53c-1-64 63-63 125-63 3-35-9-54-41-54-24 1-41 7-42 31l-33-3c5-37 33-52 76-52 45 0 72 20 72 64v82c-1 20 7 32 28 27v20c-31 9-61-2-59-35zM48-53c0 20 12 33 32 33 41-3 63-29 60-74-43 2-92-5-92 41" id="r"/><g id="b"><use transform="matrix(0.05,0,0,0.05,0,0)" xlink:href="#q"/><use transform="matrix(0.05,0,0,0.05,9,0)" xlink:href="#r"/><use transform="matrix(0.05,0,0,0.05,19,0)" xlink:href="#o"/><use transform="matrix(0.05,0,0,0.05,28,0)" xlink:href="#p"/></g><path fill="#333" d="M141-36C126-15 110 5 73 4 37 3 15-17 15-53c-1-64 63-63 125-63 3-35-9-54-41-54-24 1-41 7-42 31l-33-3c5-37 33-52 76-52 45 0 72 20 72 64v82c-1 20 7 32 28 27v20c-31 9-61-2-59-35zM48-53c0 20 12 33 32 33 41-3 63-29 60-74-43 2-92-5-92 41" id="s"/><path fill="#333" d="M85-194c31 0 48 13 60 33l-1-100h32l1 261h-30c-2-10 0-23-3-31C134-8 116 4 85 4 32 4 16-35 15-94c0-66 23-100 70-100zm9 24c-40 0-46 34-46 75 0 40 6 74 45 74 42 0 51-32 51-76 0-42-9-74-50-73" id="t"/><path fill="#333" d="M210-169c-67 3-38 105-44 169h-31v-121c0-29-5-50-35-48C34-165 62-65 56 0H25l-1-190h30c1 10-1 24 2 32 10-44 99-50 107 0 11-21 27-35 58-36 85-2 47 119 55 194h-31v-121c0-29-5-49-35-48" id="u"/><path fill="#333" d="M24-231v-30h32v30H24zM24 0v-190h32V0H24" id="v"/><path fill="#333" d="M117-194c89-4 53 116 60 194h-32v-121c0-31-8-49-39-48C34-167 62-67 57 0H25l-1-190h30c1 10-1 24 2 32 11-22 29-35 61-36" id="w"/><g id="c"><use transform="matrix(0.05,0,0,0.05,0,0)" xlink:href="#s"/><use transform="matrix(0.05,0,0,0.05,10,0)" xlink:href="#t"/><use transform="matrix(0.05,0,0,0.05,20,0)" xlink:href="#u"/><use transform="matrix(0.05,0,0,0.05,34.95,0)" xlink:href="#v"/><use transform="matrix(0.05,0,0,0.05,38.900000000000006,0)" xlink:href="#w"/></g><path d="M169-182c-1-43-94-46-97-3 18 66 151 10 154 114 3 95-165 93-204 36-6-8-10-19-12-30l50-8c3 46 112 56 116 5-17-69-150-10-154-114-4-87 153-88 188-35 5 8 8 18 10 28" id="x"/><path d="M62-158H24l-5-90h48" id="y"/><path d="M25-224v-37h50v37H25zM25 0v-190h50V0H25" id="z"/><path d="M88-194c31-1 46 15 58 34l-1-101h50l1 261h-48c-2-10 0-23-3-31C134-8 116 4 84 4 32 4 16-41 15-95c0-56 19-97 73-99zm17 164c33 0 40-30 41-66 1-37-9-64-41-64s-38 30-39 65c0 43 13 65 39 65" id="A"/><path d="M185-48c-13 30-37 53-82 52C43 2 14-33 14-96s30-98 90-98c62 0 83 45 84 108H66c0 31 8 55 39 56 18 0 30-7 34-22zm-45-69c5-46-57-63-70-21-2 6-4 13-4 21h74" id="B"/><path d="M135-194c87-1 58 113 63 194h-50c-7-57 23-157-34-157-59 0-34 97-39 157H25l-1-190h47c2 12-1 28 3 38 12-26 28-41 61-42" id="C"/><path d="M115-3C79 11 28 4 28-45v-112H4v-33h27l15-45h31v45h36v33H77v99c-1 23 16 31 38 25v30" id="D"/><path d="M121-226c-27-7-43 5-38 36h38v33H83V0H34v-157H6v-33h28c-9-59 32-81 87-68v32" id="E"/><path d="M135-150c-39-12-60 13-60 57V0H25l-1-190h47c2 13-1 29 3 40 6-28 27-53 61-41v41" id="F"/><g id="d"><use transform="matrix(0.05,0,0,0.05,0,0)" xlink:href="#x"/><use transform="matrix(0.05,0,0,0.05,12,0)" xlink:href="#y"/><use transform="matrix(0.05,0,0,0.05,16.25,0)" xlink:href="#z"/><use transform="matrix(0.05,0,0,0.05,21.25,0)" xlink:href="#A"/><use transform="matrix(0.05,0,0,0.05,32.2,0)" xlink:href="#B"/><use transform="matrix(0.05,0,0,0.05,42.2,0)" xlink:href="#C"/><use transform="matrix(0.05,0,0,0.05,53.150000000000006,0)" xlink:href="#D"/><use transform="matrix(0.05,0,0,0.05,59.1,0)" xlink:href="#z"/><use transform="matrix(0.05,0,0,0.05,64.10000000000001,0)" xlink:href="#E"/><use transform="matrix(0.05,0,0,0.05,70.05000000000001,0)" xlink:href="#z"/><use transform="matrix(0.05,0,0,0.05,75.05000000000001,0)" xlink:href="#B"/><use transform="matrix(0.05,0,0,0.05,85.05000000000001,0)" xlink:href="#F"/></g><path fill="#333" d="M84 4C-5 8 30-112 23-190h32v120c0 31 7 50 39 49 72-2 45-101 50-169h31l1 190h-30c-1-10 1-25-2-33-11 22-28 36-60 37" id="G"/><path fill="#333" d="M135-143c-3-34-86-38-87 0 15 53 115 12 119 90S17 21 10-45l28-5c4 36 97 45 98 0-10-56-113-15-118-90-4-57 82-63 122-42 12 7 21 19 24 35" id="H"/><path fill="#333" d="M100-194c63 0 86 42 84 106H49c0 40 14 67 53 68 26 1 43-12 49-29l28 8c-11 28-37 45-77 45C44 4 14-33 15-96c1-61 26-98 85-98zm52 81c6-60-76-77-97-28-3 7-6 17-6 28h103" id="I"/><path fill="#333" d="M114-163C36-179 61-72 57 0H25l-1-190h30c1 12-1 29 2 39 6-27 23-49 58-41v29" id="J"/><g id="e"><use transform="matrix(0.05,0,0,0.05,0,0)" xlink:href="#G"/><use transform="matrix(0.05,0,0,0.05,10,0)" xlink:href="#H"/><use transform="matrix(0.05,0,0,0.05,19,0)" xlink:href="#I"/><use transform="matrix(0.05,0,0,0.05,29,0)" xlink:href="#J"/></g><path d="M190-63c-7 42-38 67-86 67-59 0-84-38-90-98-12-110 154-137 174-36l-49 2c-2-19-15-32-35-32-30 0-35 28-38 64-6 74 65 87 74 30" id="K"/><path d="M110-194c64 0 96 36 96 99 0 64-35 99-97 99-61 0-95-36-95-99 0-62 34-99 96-99zm-1 164c35 0 45-28 45-65 0-40-10-65-43-65-34 0-45 26-45 65 0 36 10 65 43 65" id="L"/><path d="M137-138c1-29-70-34-71-4 15 46 118 7 119 86 1 83-164 76-172 9l43-7c4 19 20 25 44 25 33 8 57-30 24-41C81-84 22-81 20-136c-2-80 154-74 161-7" id="M"/><path d="M85 4C-2 5 27-109 22-190h50c7 57-23 150 33 157 60-5 35-97 40-157h50l1 190h-47c-2-12 1-28-3-38-12 25-28 42-61 42" id="N"/><path d="M25 0v-261h50V0H25" id="O"/><g id="f"><use transform="matrix(0.05,0,0,0.05,0,0)" xlink:href="#K"/><use transform="matrix(0.05,0,0,0.05,10,0)" xlink:href="#L"/><use transform="matrix(0.05,0,0,0.05,20.950000000000003,0)" xlink:href="#C"/><use transform="matrix(0.05,0,0,0.05,31.900000000000006,0)" xlink:href="#M"/><use transform="matrix(0.05,0,0,0.05,41.900000000000006,0)" xlink:href="#N"/><use transform="matrix(0.05,0,0,0.05,52.85,0)" xlink:href="#O"/><use transform="matrix(0.05,0,0,0.05,57.85,0)" xlink:href="#D"/><use transform="matrix(0.05,0,0,0.05,63.80000000000001,0)" xlink:href="#B"/><use transform="matrix(0.05,0,0,0.05,73.80000000000001,0)" xlink:href="#F"/></g><g id="g"><use transform="matrix(0.05,0,0,0.05,0,0)" xlink:href="#O"/><use transform="matrix(0.05,0,0,0.05,5,0)" xlink:href="#B"/></g><g id="h"><use transform="matrix(0.05,0,0,0.05,0,0)" xlink:href="#M"/><use transform="matrix(0.05,0,0,0.05,10,0)" xlink:href="#z"/><use transform="matrix(0.05,0,0,0.05,15,0)" xlink:href="#D"/><use transform="matrix(0.05,0,0,0.05,20.95,0)" xlink:href="#B"/></g><path d="M133-34C117-15 103 5 69 4 32 3 11-16 11-54c-1-60 55-63 116-61 1-26-3-47-28-47-18 1-26 9-28 27l-52-2c7-38 36-58 82-57s74 22 75 68l1 82c-1 14 12 18 25 15v27c-30 8-71 5-69-32zm-48 3c29 0 43-24 42-57-32 0-66-3-65 30 0 17 8 27 23 27" id="P"/><path d="M25-224v-37h50v37H25zM75 22c2 45-34 59-81 51V38c22 5 31-5 31-27v-201h50V22" id="Q"/><g id="i"><use transform="matrix(0.05,0,0,0.05,0,0)" xlink:href="#P"/><use transform="matrix(0.05,0,0,0.05,10,0)" xlink:href="#Q"/><use transform="matrix(0.05,0,0,0.05,15,0)" xlink:href="#L"/><use transform="matrix(0.05,0,0,0.05,25.950000000000003,0)" xlink:href="#N"/><use transform="matrix(0.05,0,0,0.05,36.900000000000006,0)" xlink:href="#D"/><use transform="matrix(0.05,0,0,0.05,42.85000000000001,0)" xlink:href="#B"/><use transform="matrix(0.05,0,0,0.05,52.85,0)" xlink:href="#F"/></g><path d="M135-194c53 0 70 44 70 98 0 56-19 98-73 100-31 1-45-17-59-34 3 33 2 69 2 105H25l-1-265h48c2 10 0 23 3 31 11-24 29-35 60-35zM114-30c33 0 39-31 40-66 0-38-9-64-40-64-56 0-55 130 0 130" id="R"/><g id="j"><use transform="matrix(0.05,0,0,0.05,0,0)" xlink:href="#R"/><use transform="matrix(0.05,0,0,0.05,10.950000000000001,0)" xlink:href="#F"/><use transform="matrix(0.05,0,0,0.05,17.950000000000003,0)" xlink:href="#L"/><use transform="matrix(0.05,0,0,0.05,28.900000000000006,0)" xlink:href="#A"/><use transform="matrix(0.05,0,0,0.05,39.85000000000001,0)" xlink:href="#N"/><use transform="matrix(0.05,0,0,0.05,50.80000000000001,0)" xlink:href="#z"/><use transform="matrix(0.05,0,0,0.05,55.80000000000001,0)" xlink:href="#D"/></g><path d="M220-157c-53 9-28 100-34 157h-49v-107c1-27-5-49-29-50C55-147 81-57 75 0H25l-1-190h47c2 12-1 28 3 38 10-53 101-56 108 0 13-22 24-43 59-42 82 1 51 116 57 194h-49v-107c-1-25-5-48-29-50" id="S"/><g id="k"><use transform="matrix(0.05,0,0,0.05,0,0)" xlink:href="#S"/><use transform="matrix(0.05,0,0,0.05,16,0)" xlink:href="#L"/><use transform="matrix(0.05,0,0,0.05,26.950000000000003,0)" xlink:href="#A"/><use transform="matrix(0.05,0,0,0.05,37.900000000000006,0)" xlink:href="#z"/><use transform="matrix(0.05,0,0,0.05,42.900000000000006,0)" xlink:href="#E"/><use transform="matrix(0.05,0,0,0.05,48.85000000000001,0)" xlink:href="#z"/><use transform="matrix(0.05,0,0,0.05,53.85,0)" xlink:href="#B"/><use transform="matrix(0.05,0,0,0.05,63.85,0)" xlink:href="#F"/></g><g id="l"><use transform="matrix(0.05,0,0,0.05,0,0)" xlink:href="#M"/><use transform="matrix(0.05,0,0,0.05,10,0)" xlink:href="#N"/><use transform="matrix(0.05,0,0,0.05,20.950000000000003,0)" xlink:href="#R"/><use transform="matrix(0.05,0,0,0.05,31.900000000000006,0)" xlink:href="#R"/><use transform="matrix(0.05,0,0,0.05,42.85000000000001,0)" xlink:href="#F"/><use transform="matrix(0.05,0,0,0.05,49.85000000000001,0)" xlink:href="#z"/><use transform="matrix(0.05,0,0,0.05,54.85,0)" xlink:href="#S"/><use transform="matrix(0.05,0,0,0.05,70.85000000000001,0)" xlink:href="#B"/><use transform="matrix(0.05,0,0,0.05,80.85000000000001,0)" xlink:href="#F"/></g><path fill="#333" d="M18-100v-36l175-74v27L42-118l151 64v27" id="T"/><path fill="#333" d="M141 0L90-78 38 0H4l68-98-65-92h35l48 74 47-74h35l-64 92 68 98h-35" id="U"/><path fill="#333" d="M59-47c-2 24 18 29 38 22v24C64 9 27 4 27-40v-127H5v-23h24l9-43h21v43h35v23H59v120" id="V"/><path fill="#333" d="M18-27v-27l151-64-151-65v-27l175 74v36" id="W"/><g id="m"><use transform="matrix(0.05,0,0,0.05,0,0)" xlink:href="#T"/><use transform="matrix(0.05,0,0,0.05,10.5,0)" xlink:href="#T"/><use transform="matrix(0.05,0,0,0.05,21,0)" xlink:href="#I"/><use transform="matrix(0.05,0,0,0.05,31,0)" xlink:href="#U"/><use transform="matrix(0.05,0,0,0.05,40,0)" xlink:href="#V"/><use transform="matrix(0.05,0,0,0.05,45,0)" xlink:href="#I"/><use transform="matrix(0.05,0,0,0.05,55,0)" xlink:href="#w"/><use transform="matrix(0.05,0,0,0.05,65,0)" xlink:href="#t"/><use transform="matrix(0.05,0,0,0.05,75,0)" xlink:href="#W"/><use transform="matrix(0.05,0,0,0.05,85.5,0)" xlink:href="#W"/></g></defs></g></svg>